# xmcd
#
# Track frame offsets: 
#        150
#        20287
#        38445
#        59143
#        74781
#        94227
#        114164
#        128388
#        142619
#        162293
#        179123
#        200899
#        222152
#        238507
#
# Disc length: 3739 seconds
#
# Revision: 0
# Processed by: cddbd v1.5.2PL0 Copyright (c) Steve Scherf et al.
# Submitted via: ExactAudioCopy v0.99pb5
#
DISCID=c70e990e
DTITLE=Tupla-A and Koira-Isä - Ihmepuu
DYEAR=2008
DGENRE=Hip-Hop
TTITLE0=Apinamoodi
TTITLE1=Kiinnostaako?
TTITLE2=Tietovisa
TTITLE3=Vihaliemisoppa
TTITLE4=Outoo Touhuu (feat. Asa, Stephen Hawkings and Davo)
TTITLE5=Aggremusaa
TTITLE6=Ne
TTITLE7=Etenee
TTITLE8=Pitkä Koulu
TTITLE9=Siin on järkee
TTITLE10=Kuumia Aaltoja
TTITLE11=Hienoa (feat. Käkkis)
TTITLE12=Kallista
TTITLE13=Vasen! Oikee!
EXTD=
EXTT0=
EXTT1=
EXTT2=
EXTT3=
EXTT4=
EXTT5=
EXTT6=
EXTT7=
EXTT8=
EXTT9=
EXTT10=
EXTT11=
EXTT12=
EXTT13=
PLAYORDER=
